<?xml version="1.0" encoding="UTF-8"?>
<svg id="Capa_1" data-name="Capa 1" xmlns="http://www.w3.org/2000/svg" viewBox="0 0 250 170">
  <defs>
    <style>
      .cls-1 {
        fill: #15364f;
      }

      .cls-2 {
        fill: #fd9424;
      }
    </style>
  </defs>
  <polyline class="cls-1" points="121.23 85.27 117.04 92.52 109.5 105.57 125.39 105.57 133.69 120.04 100.38 120.04 92.43 106.19 92.79 105.57 93.65 104.09 104.1 85.98 104.64 85.05 104.1 84.11 93.65 66.01 92.74 64.43 92.39 63.82 100.35 49.96 133.66 49.96 125.35 64.43 109.45 64.43 117.24 77.92 121.18 84.75"/>
  <path class="cls-2" d="M157.61,85.05l-11.65,20.39h-2.66s-18.06.03-18.06.03l-.26-.26,9.08-15.86,2.53-4.42-2.52-4.43-9.09-15.98h20.74c4.07,6.75,7.99,13.66,11.88,20.53Z"/>
</svg>