<?xml version="1.0" encoding="UTF-8"?>
<svg id="Capa_1" data-name="Capa 1" xmlns="http://www.w3.org/2000/svg" viewBox="0 0 250 170">
  <defs>
    <style>
      .cls-1 {
        fill: #15364f;
      }

      .cls-2 {
        fill: #fd9424;
      }
    </style>
  </defs>
  <g>
    <polyline class="cls-1" points="44.77 85.23 40.58 92.49 33.05 105.53 48.93 105.53 57.24 120 23.93 120 15.98 106.16 16.34 105.53 17.2 104.05 27.65 85.95 28.19 85.01 27.65 84.08 17.2 65.97 16.29 64.39 15.93 63.79 23.89 49.92 57.2 49.92 48.9 64.39 33 64.39 40.78 77.88 44.73 84.71"/>
    <path class="cls-2" d="M81.16,85.01l-11.65,20.39h-2.66s-18.06.03-18.06.03l-.26-.26,9.08-15.86,2.53-4.42-2.52-4.43-9.09-15.98h20.74c4.07,6.75,7.99,13.66,11.88,20.53Z"/>
  </g>
  <g>
    <path class="cls-1" d="M124.28,81.1h-6.25v-17.66h-.14l-5.26,17.66h-4.7l-5.26-17.66h-.14v17.66h-6.11v-25.21h9.85l4.03,15.22h.14l4.06-15.22h9.78v25.21Z"/>
    <path class="cls-1" d="M126.54,55.89h6.71v25.21h-6.71v-25.21Z"/>
    <path class="cls-1" d="M118.65,109.31c-1.05,1.46-2.43,2.61-4.15,3.46s-3.67,1.27-5.86,1.27c-2.47,0-4.66-.52-6.57-1.55-1.91-1.04-3.4-2.54-4.47-4.52-1.07-1.98-1.61-4.34-1.61-7.1s.53-5.12,1.61-7.1c1.07-1.98,2.56-3.48,4.47-4.52,1.91-1.04,4.1-1.55,6.57-1.55,2.07,0,3.94.38,5.6,1.15,1.66.77,3.02,1.78,4.08,3.06,1.06,1.27,1.78,2.66,2.15,4.17l-6.71.85c-.35-1.18-.97-2.12-1.85-2.84-.88-.72-1.97-1.08-3.27-1.08-1.65,0-3.03.64-4.13,1.91-1.11,1.27-1.66,3.26-1.66,5.97s.55,4.7,1.66,5.97c1.11,1.27,2.48,1.91,4.13,1.91,1.41,0,2.57-.44,3.48-1.32.91-.88,1.5-2.09,1.78-3.62l6.78.6c-.31,1.81-.98,3.45-2.03,4.91Z"/>
    <path class="cls-1" d="M128.77,108.18l-1.66,5.3h-7.06l8.97-25.21h9.04l8.97,25.21h-7.17l-1.69-5.3h-9.39ZM133.5,93.77h-.14l-3.07,9.68h6.32l-3.11-9.68Z"/>
    <path class="cls-1" d="M158.71,104.96h-3.92v8.51h-6.71v-25.21h12.92c3.01,0,5.36.73,7.03,2.19,1.67,1.46,2.51,3.51,2.51,6.14,0,1.86-.42,3.44-1.27,4.73-.85,1.3-2.06,2.25-3.64,2.86l5.62,9.29h-7.77l-4.77-8.51ZM162.72,98.99c.65-.56.97-1.36.97-2.4s-.32-1.8-.97-2.37c-.65-.57-1.61-.85-2.88-.85h-5.05v6.46h5.05c1.27,0,2.23-.28,2.88-.85Z"/>
    <path class="cls-1" d="M192.54,113.47v-2.9c-1.93,2.31-4.54,3.46-7.84,3.46-2.47,0-4.67-.52-6.6-1.57s-3.44-2.57-4.54-4.56c-1.09-1.99-1.64-4.34-1.64-7.05s.55-5.08,1.64-7.06c1.1-1.98,2.61-3.49,4.54-4.54s4.13-1.57,6.6-1.57c3.04,0,5.6.75,7.7,2.24,2.1,1.5,3.51,3.44,4.24,5.84l-6.74.81c-.45-1.13-1.1-2.01-1.96-2.65-.86-.64-1.94-.95-3.23-.95-1.77,0-3.2.64-4.29,1.91-1.09,1.27-1.64,3.26-1.64,5.97s.55,4.7,1.64,5.97c1.1,1.27,2.52,1.91,4.29,1.91,1.36,0,2.56-.35,3.6-1.06,1.04-.71,1.8-1.78,2.3-3.21h-5.47v-4.7h11.79v13.7h-4.38Z"/>
    <path class="cls-1" d="M206.56,108.18l-1.66,5.3h-7.06l8.97-25.21h9.04l8.97,25.21h-7.17l-1.69-5.3h-9.39ZM211.29,93.77h-.14l-3.07,9.68h6.32l-3.11-9.68Z"/>
  </g>
</svg>